# xmcd
#
# Track frame offsets: 
#        150
#        12250
#        25312
#        37671
#        49160
#        59520
#        68791
#        83814
#        93348
#        105169
#        117324
#        129043
#        143276
#        153725
#        166104
#        176598
#        189897
#        203601
#        217581
#        230155
#        240825
#        253862
#        264687
#        278611
#        291503
#
# Disc length: 4019 seconds
#
# Revision: 0
# Processed by: cddbd v1.5.2PL0 Copyright (c) Steve Scherf et al.
# Submitted via: ExactAudioCopyFreeDBPlugin 1.0
#
DISCID=460fb119
DTITLE=Various Artist - The Roots Of - Gram Parsons
DYEAR=2009
DGENRE=Country
TTITLE0=Cash On The Barrel Head (The Louvin Brothers)
TTITLE1=Dim Lights Thick Smoke (Flatt And Scruggs)
TTITLE2=Cold,Cold Heart (Hank Williams)
TTITLE3=Crazy Arms (Ray Price)
TTITLE4=The Christian Life (The Louvin Brothers)
TTITLE5=I Am A Pilgrim (Merle Travis)
TTITLE6=Father Along (Rose Maddox)
TTITLE7=Knee Deep In The Blues (Guy Mitchell)
TTITLE8=Miller's Cave (Hank Snow)
TTITLE9=A Satisfied Mind (Porter Wagoner)
TTITLE10=You Win Again (Hank Williams)
TTITLE11=Blue Canadian Rockies (Gene Autry)
TTITLE12=Troubles Back In Town (
TTITLE13=Lovesick Blues (Hank Williams)
TTITLE14=The Angels Rejoiced Last Night (The Louvin Brothers)
TTITLE15=Didn't They Crucify My Lord (Unknown)
TTITLE16=Pretty Polly (Dock Boggs)
TTITLE17=Candyman (Reverend Gary Davis)
TTITLE18=Folsom Prison Blues (Johnny Cash)
TTITLE19=Rip It Up (Little Richard)
TTITLE20=That's All Right "Mama" (Arthur "Big Boy"Crudup
TTITLE21=Days (Chuck Berry)
TTITLE22=Bony Moronie (Larry Williams)
TTITLE23=Searchin' (The Coasters)
TTITLE24=Lucille (Little Richard)
EXTD=
EXTT0=
EXTT1=
EXTT2=
EXTT3=
EXTT4=
EXTT5=
EXTT6=
EXTT7=
EXTT8=
EXTT9=
EXTT10=
EXTT11=
EXTT12=
EXTT13=
EXTT14=
EXTT15=
EXTT16=
EXTT17=
EXTT18=
EXTT19=
EXTT20=
EXTT21=
EXTT22=
EXTT23=
EXTT24=
PLAYORDER=
